999
DXF file created by HALCON
  0
SECTION
  2
HEADER
  9
$ACADVER
  1
AC1009
  0
ENDSEC
  0
SECTION
  2
TABLES
  0
TABLE
  2
LTYPE
 70
1
  0
LTYPE
  2
CONTINUOUS
 70
0
  3
Solid line
 72
65
 73
0
 40
0
  0
ENDTAB
  0
TABLE
  2
LAYER
 70
1
  0
LAYER
  2
0
 70
0
 62
7
  6
CONTINUOUS
  0
ENDTAB
  0
TABLE
  2
APPID
 70
2
  0
APPID
  2
ACAD
 70
64
  0
APPID
  2
HALCON
 70
64
  0
ENDTAB
  0
ENDSEC
  0
SECTION
  2
BLOCKS
  0
ENDSEC
  0
SECTION
  2
ENTITIES
  0
POLYLINE
  8
0
 66
1
 10
0.0
 20
0.0
 30
0.0
 70
0
  0
VERTEX
  8
0
 10
-3.19848204
 20
2.20837593
 30
0.0
  0
VERTEX
  8
0
 10
-2.60320807
 20
2.62727189
 30
0.0
  0
VERTEX
  8
0
 10
-2.60320807
 20
3.82657909
 30
0.0
  0
VERTEX
  8
0
 10
-2.60320807
 20
3.82657909
 30
0.0
  0
VERTEX
  8
0
 10
-2.76903486
 20
3.81024647
 30
0.0
  0
VERTEX
  8
0
 10
-2.92848897
 20
3.76187658
 30
0.0
  0
VERTEX
  8
0
 10
-3.07544279
 20
3.68332815
 30
0.0
  0
VERTEX
  8
0
 10
-3.20424891
 20
3.57761979
 30
0.0
  0
VERTEX
  8
0
 10
-3.30995727
 20
3.44881368
 30
0.0
  0
VERTEX
  8
0
 10
-3.3885057
 20
3.30185986
 30
0.0
  0
VERTEX
  8
0
 10
-3.43687558
 20
3.14240575
 30
0.0
  0
VERTEX
  8
0
 10
-3.45320797
 20
2.97657895
 30
0.0
  0
VERTEX
  8
0
 10
-3.45320797
 20
2.20837593
 30
0.0
  0
VERTEX
  8
0
 10
-3.19848204
 20
2.20837593
 30
0.0
  0
SEQEND
  0
POLYLINE
  8
0
 66
1
 10
0.0
 20
0.0
 30
0.0
 70
0
  0
VERTEX
  8
0
 10
0.344991
 20
3.50340891
 30
0.0
  0
VERTEX
  8
0
 10
0.344991
 20
0.61041802
 30
0.0
  0
VERTEX
  8
0
 10
0.80691701
 20
0.21008199
 30
0.0
  0
VERTEX
  8
0
 10
1.19499099
 20
0.21008199
 30
0.0
  0
VERTEX
  8
0
 10
1.19499099
 20
2.97657895
 30
0.0
  0
VERTEX
  8
0
 10
1.19499099
 20
2.97657895
 30
0.0
  0
VERTEX
  8
0
 10
1.18262708
 20
3.12102914
 30
0.0
  0
VERTEX
  8
0
 10
1.14589489
 20
3.2612772
 30
0.0
  0
VERTEX
  8
0
 10
1.08586311
 20
3.3932426
 30
0.0
  0
VERTEX
  8
0
 10
1.00427806
 20
3.5130868
 30
0.0
  0
VERTEX
  8
0
 10
0.90351325
 20
3.61732316
 30
0.0
  0
VERTEX
  8
0
 10
0.78650016
 20
3.70291901
 30
0.0
  0
VERTEX
  8
0
 10
0.65664279
 20
3.76738453
 30
0.0
  0
VERTEX
  8
0
 10
0.51771897
 20
3.80884409
 30
0.0
  0
VERTEX
  8
0
 10
0.344991
 20
3.50340891
 30
0.0
  0
SEQEND
  0
POLYLINE
  8
0
 66
1
 10
0.0
 20
0.0
 30
0.0
 70
0
  0
VERTEX
  8
0
 10
-0.89377999
 20
-0.38845301
 30
0.0
  0
VERTEX
  8
0
 10
-0.41308999
 20
0.46154699
 30
0.0
  0
VERTEX
  8
0
 10
-1.36087501
 20
0.46154699
 30
0.0
  0
VERTEX
  8
0
 10
-1.84156406
 20
-0.38845301
 30
0.0
  0
VERTEX
  8
0
 10
-0.89377999
 20
-0.38845301
 30
0.0
  0
SEQEND
  0
POLYLINE
  8
0
 66
1
 10
0.0
 20
0.0
 30
0.0
 70
0
  0
VERTEX
  8
0
 10
-2.60320807
 20
-3.43661594
 30
0.0
  0
VERTEX
  8
0
 10
-2.60320807
 20
-0.53980601
 30
0.0
  0
VERTEX
  8
0
 10
-3.04752803
 20
-0.139918
 30
0.0
  0
VERTEX
  8
0
 10
-3.45320797
 20
-0.139918
 30
0.0
  0
VERTEX
  8
0
 10
-3.45320797
 20
-2.91654897
 30
0.0
  0
VERTEX
  8
0
 10
-3.45320797
 20
-2.91654897
 30
0.0
  0
VERTEX
  8
0
 10
-3.44091821
 20
-3.06056881
 30
0.0
  0
VERTEX
  8
0
 10
-3.40440392
 20
-3.20042372
 30
0.0
  0
VERTEX
  8
0
 10
-3.34472156
 20
-3.33207011
 30
0.0
  0
VERTEX
  8
0
 10
-3.26359653
 20
-3.45170045
 30
0.0
  0
VERTEX
  8
0
 10
-3.16337466
 20
-3.55585575
 30
0.0
  0
VERTEX
  8
0
 10
-3.04695463
 20
-3.64152431
 30
0.0
  0
VERTEX
  8
0
 10
-2.91770244
 20
-3.70622826
 30
0.0
  0
VERTEX
  8
0
 10
-2.779356
 20
-3.74809694
 30
0.0
  0
VERTEX
  8
0
 10
-2.60320807
 20
-3.43661594
 30
0.0
  0
SEQEND
  0
POLYLINE
  8
0
 66
1
 10
0.0
 20
0.0
 30
0.0
 70
0
  0
VERTEX
  8
0
 10
0.87253201
 20
-2.13214993
 30
0.0
  0
VERTEX
  8
0
 10
0.344991
 20
-2.64085007
 30
0.0
  0
VERTEX
  8
0
 10
0.344991
 20
-3.76654911
 30
0.0
  0
VERTEX
  8
0
 10
0.344991
 20
-3.76654911
 30
0.0
  0
VERTEX
  8
0
 10
0.51081777
 20
-3.75021648
 30
0.0
  0
VERTEX
  8
0
 10
0.67027193
 20
-3.7018466
 30
0.0
  0
VERTEX
  8
0
 10
0.81722575
 20
-3.62329817
 30
0.0
  0
VERTEX
  8
0
 10
0.94603181
 20
-3.51758981
 30
0.0
  0
VERTEX
  8
0
 10
1.05174017
 20
-3.38878369
 30
0.0
  0
VERTEX
  8
0
 10
1.1302886
 20
-3.24182987
 30
0.0
  0
VERTEX
  8
0
 10
1.17865849
 20
-3.08237576
 30
0.0
  0
VERTEX
  8
0
 10
1.19499099
 20
-2.91654897
 30
0.0
  0
VERTEX
  8
0
 10
1.19499099
 20
-2.13214993
 30
0.0
  0
VERTEX
  8
0
 10
0.87253201
 20
-2.13214993
 30
0.0
  0
SEQEND
  0
POLYLINE
  8
0
 66
1
 10
0.0
 20
0.0
 30
0.0
 70
0
  0
VERTEX
  8
0
 10
3.97997093
 20
-0.13725699
 30
0.0
  0
VERTEX
  8
0
 10
4.42429209
 20
-0.53714502
 30
0.0
  0
VERTEX
  8
0
 10
4.42429113
 20
-3.76388788
 30
0.0
  0
VERTEX
  8
0
 10
4.42429113
 20
-3.76388788
 30
0.0
  0
VERTEX
  8
0
 10
4.25846434
 20
-3.74755526
 30
0.0
  0
VERTEX
  8
0
 10
4.09901047
 20
-3.69918513
 30
0.0
  0
VERTEX
  8
0
 10
3.95205688
 20
-3.6206367
 30
0.0
  0
VERTEX
  8
0
 10
3.82325101
 20
-3.51492834
 30
0.0
  0
VERTEX
  8
0
 10
3.71754265
 20
-3.38612247
 30
0.0
  0
VERTEX
  8
0
 10
3.63899422
 20
-3.23916864
 30
0.0
  0
VERTEX
  8
0
 10
3.59062457
 20
-3.07971454
 30
0.0
  0
VERTEX
  8
0
 10
3.57429194
 20
-2.91388798
 30
0.0
  0
VERTEX
  8
0
 10
3.57429194
 20
-0.13725699
 30
0.0
  0
VERTEX
  8
0
 10
3.97997093
 20
-0.13725699
 30
0.0
  0
SEQEND
  0
POLYLINE
  8
0
 66
1
 10
0.0
 20
0.0
 30
0.0
 70
0
  0
VERTEX
  8
0
 10
6.19928312
 20
0.61420798
 30
0.0
  0
VERTEX
  8
0
 10
7.02249002
 20
1.67594397
 30
0.0
  0
VERTEX
  8
0
 10
7.02249002
 20
2.82924008
 30
0.0
  0
VERTEX
  8
0
 10
6.84112597
 20
2.82924008
 30
0.0
  0
VERTEX
  8
0
 10
5.89839077
 20
1.61334205
 30
0.0
  0
VERTEX
  8
0
 10
4.95565605
 20
2.82924008
 30
0.0
  0
VERTEX
  8
0
 10
4.77429199
 20
2.82924008
 30
0.0
  0
VERTEX
  8
0
 10
4.77429199
 20
1.67594397
 30
0.0
  0
VERTEX
  8
0
 10
5.59749889
 20
0.61420798
 30
0.0
  0
VERTEX
  8
0
 10
6.19928312
 20
0.61420798
 30
0.0
  0
SEQEND
  0
POLYLINE
  8
0
 66
1
 10
0.0
 20
0.0
 30
0.0
 70
0
  0
VERTEX
  8
0
 10
4.30191803
 20
0.043868
 30
0.0
  0
VERTEX
  8
0
 10
4.77931786
 20
-0.38579199
 30
0.0
  0
VERTEX
  8
0
 10
6.25901079
 20
-0.38579199
 30
0.0
  0
VERTEX
  8
0
 10
6.25901079
 20
-0.38579199
 30
0.0
  0
VERTEX
  8
0
 10
6.34192419
 20
-0.37762591
 30
0.0
  0
VERTEX
  8
0
 10
6.42165136
 20
-0.35344109
 30
0.0
  0
VERTEX
  8
0
 10
6.49512863
 20
-0.31416693
 30
0.0
  0
VERTEX
  8
0
 10
6.55953169
 20
-0.26131272
 30
0.0
  0
VERTEX
  8
0
 10
6.61238623
 20
-0.19690965
 30
0.0
  0
VERTEX
  8
0
 10
6.65166044
 20
-0.12343267
 30
0.0
  0
VERTEX
  8
0
 10
6.67584562
 20
-0.04370549
 30
0.0
  0
VERTEX
  8
0
 10
6.68401194
 20
0.03920802
 30
0.0
  0
VERTEX
  8
0
 10
6.67584562
 20
0.12212154
 30
0.0
  0
VERTEX
  8
0
 10
6.65166044
 20
0.20184872
 30
0.0
  0
VERTEX
  8
0
 10
6.61238623
 20
0.27532569
 30
0.0
  0
VERTEX
  8
0
 10
6.55953169
 20
0.33972877
 30
0.0
  0
VERTEX
  8
0
 10
6.49512863
 20
0.39258298
 30
0.0
  0
VERTEX
  8
0
 10
6.42165136
 20
0.43185714
 30
0.0
  0
VERTEX
  8
0
 10
6.34192419
 20
0.45604196
 30
0.0
  0
VERTEX
  8
0
 10
6.25901079
 20
0.46420804
 30
0.0
  0
VERTEX
  8
0
 10
4.78692579
 20
0.46420801
 30
0.0
  0
VERTEX
  8
0
 10
4.30191803
 20
0.043868
 30
0.0
  0
SEQEND
  0
POLYLINE
  8
0
 66
1
 10
0.0
 20
0.0
 30
0.0
 70
0
  0
VERTEX
  8
0
 10
8.22249031
 20
0.212743
 30
0.0
  0
VERTEX
  8
0
 10
7.83441591
 20
0.212743
 30
0.0
  0
VERTEX
  8
0
 10
7.37248993
 20
0.61307901
 30
0.0
  0
VERTEX
  8
0
 10
7.37248993
 20
3.82924008
 30
0.0
  0
VERTEX
  8
0
 10
7.37248993
 20
3.82924008
 30
0.0
  0
VERTEX
  8
0
 10
7.53831673
 20
3.8129077
 30
0.0
  0
VERTEX
  8
0
 10
7.69777107
 20
3.76453781
 30
0.0
  0
VERTEX
  8
0
 10
7.84472466
 20
3.68598938
 30
0.0
  0
VERTEX
  8
0
 10
7.97353077
 20
3.58028078
 30
0.0
  0
VERTEX
  8
0
 10
8.07923985
 20
3.45147467
 30
0.0
  0
VERTEX
  8
0
 10
8.15778828
 20
3.30452085
 30
0.0
  0
VERTEX
  8
0
 10
8.20615768
 20
3.14506674
 30
0.0
  0
VERTEX
  8
0
 10
8.22249031
 20
2.97923994
 30
0.0
  0
VERTEX
  8
0
 10
8.22249031
 20
0.212743
 30
0.0
  0
SEQEND
  0
POLYLINE
  8
0
 66
1
 10
0.0
 20
0.0
 30
0.0
 70
0
  0
VERTEX
  8
0
 10
8.22249031
 20
-2.91388798
 30
0.0
  0
VERTEX
  8
0
 10
8.22249031
 20
-2.91388798
 30
0.0
  0
VERTEX
  8
0
 10
8.20615768
 20
-3.07971478
 30
0.0
  0
VERTEX
  8
0
 10
8.15778828
 20
-3.23916888
 30
0.0
  0
VERTEX
  8
0
 10
8.07923889
 20
-3.3861227
 30
0.0
  0
VERTEX
  8
0
 10
7.97353077
 20
-3.51492882
 30
0.0
  0
VERTEX
  8
0
 10
7.84472466
 20
-3.62063718
 30
0.0
  0
VERTEX
  8
0
 10
7.69777107
 20
-3.69918561
 30
0.0
  0
VERTEX
  8
0
 10
7.53831673
 20
-3.74755549
 30
0.0
  0
VERTEX
  8
0
 10
7.37248993
 20
-3.76388788
 30
0.0
  0
VERTEX
  8
0
 10
7.37248993
 20
-0.53714502
 30
0.0
  0
VERTEX
  8
0
 10
7.81681108
 20
-0.13725699
 30
0.0
  0
VERTEX
  8
0
 10
8.22249031
 20
-0.13725699
 30
0.0
  0
VERTEX
  8
0
 10
8.22249031
 20
-2.91388798
 30
0.0
  0
SEQEND
  0
ENDSEC
  0
SECTION
  2
OBJECTS
  0
ENDSEC
  0
EOF
